# xmcd
#
# Track frame offsets:
#	150
#	10151
#	18841
#	29030
#	38257
#	48595
#	57865
#	68140
#	81938
#	95272
#	106676
#	118288
#	129427
#	135014
#
# Disc length: 1948 seconds
#
# Revision: 4
# Processed by: cddbd v1.5.2PL0 Copyright (c) Steve Scherf et al.
# Submitted via: EasyCDDAExtractor 10.0.1.1
#
DISCID=a7079a0e
DTITLE=Buck Owens - I've Got a Tiger by the Tail
DYEAR=1965
DGENRE=Country
TTITLE0=I've Got a Tiger by the Tail
TTITLE1=Trouble and Me
TTITLE2=Let the Sad Times Roll On
TTITLE3=Wham Bam
TTITLE4=If You Fall Out of Love With Me
TTITLE5=Fallin' For You
TTITLE6=We're Gonna Let the Good Times Roll
TTITLE7=The Band Keeps Playin' On
TTITLE8=Streets of Laredo
TTITLE9=Cryin' Time
TTITLE10=A Maiden's Prayer
TTITLE11=Memphis
TTITLE12=This Ol' Heart (Live Version)
TTITLE13=Act Naturally (Live Version)
EXTD=
EXTT0=
EXTT1=
EXTT2=
EXTT3=
EXTT4=
EXTT5=
EXTT6=
EXTT7=
EXTT8=
EXTT9=
EXTT10=
EXTT11=
EXTT12=
EXTT13=
PLAYORDER=
